<?xml version="1.0" encoding="UTF-8"?>
<svg id="uuid-b0937caf-760d-43cd-98a0-017e366349be" data-name="Layer 1" xmlns="http://www.w3.org/2000/svg" width="595.276" height="164.152" viewBox="0 0 595.276 164.152">
  <defs>
    <style>
      .uuid-b1649a7d-bb6b-44e1-9760-7a698980c70e {
        fill: #06c;
      }

      .uuid-708fa214-2777-402b-9973-3360da2f703a {
        fill: #fff;
      }

      .uuid-8625b6a4-11ff-4dac-8e2a-230e889d1623 {
        fill: #a0a0a0;
      }

      .uuid-56631c47-09e4-4235-b411-b4c32267632f {
        fill: #c7c7c7;
      }

      .uuid-4ab49e05-bcb3-4413-997a-645180e846eb {
        fill: #dbe8f5;
      }

      .uuid-8d4be44b-cba3-4825-ae32-c0b66847051a {
        stroke: #000;
      }

      .uuid-8d4be44b-cba3-4825-ae32-c0b66847051a, .uuid-559ff37a-de2c-46ed-838d-4cd8ab9c34f3 {
        fill: none;
        stroke-miterlimit: 10;
      }

      .uuid-559ff37a-de2c-46ed-838d-4cd8ab9c34f3 {
        stroke: #c7c7c7;
      }
    </style>
  </defs>
  <g>
    <line class="uuid-559ff37a-de2c-46ed-838d-4cd8ab9c34f3" x1="413.023" y1="120.999" x2="435.729" y2="120.999"/>
    <polygon class="uuid-56631c47-09e4-4235-b411-b4c32267632f" points="434.635 124.738 441.111 120.999 434.635 117.259 434.635 124.738"/>
  </g>
  <g>
    <line class="uuid-559ff37a-de2c-46ed-838d-4cd8ab9c34f3" x1="124.842" y1="43.787" x2="148.53" y2="43.787"/>
    <polygon class="uuid-56631c47-09e4-4235-b411-b4c32267632f" points="147.436 47.527 153.912 43.787 147.436 40.047 147.436 47.527"/>
  </g>
  <rect class="uuid-b1649a7d-bb6b-44e1-9760-7a698980c70e" x="9.997" y="16.338" width="85.396" height="54.897"/>
  <g>
    <path class="uuid-708fa214-2777-402b-9973-3360da2f703a" d="M35.25,41.455h1.109v.72c.35-.48,.909-.76,1.559-.76,1.269,0,2.269,1.129,2.269,2.549,0,1.429-1.029,2.548-2.349,2.548-.589,0-1.099-.229-1.459-.649v2.718h-1.129v-7.126Zm1.129,1.469v2.089c.29,.35,.72,.55,1.199,.55,.859,0,1.489-.68,1.489-1.599,0-.91-.64-1.599-1.489-1.599-.5,0-.899,.19-1.199,.56Z"/>
    <path class="uuid-708fa214-2777-402b-9973-3360da2f703a" d="M41.36,41.455h1.129v1.089c.27-.77,.75-1.179,1.379-1.179,.19,.01,.32,.03,.49,.1v.989c-.18-.08-.41-.12-.62-.12-.54,0-.999,.31-1.249,.83v3.298h-1.129v-5.007Z"/>
    <path class="uuid-708fa214-2777-402b-9973-3360da2f703a" d="M47.339,41.375c1.439,0,2.519,1.12,2.519,2.589,0,1.479-1.089,2.599-2.519,2.599s-2.519-1.129-2.519-2.599,1.089-2.589,2.519-2.589Zm1.399,2.599c0-.949-.59-1.629-1.399-1.629-.819,0-1.399,.68-1.399,1.629,0,.939,.58,1.609,1.399,1.609s1.399-.68,1.399-1.609Z"/>
    <path class="uuid-708fa214-2777-402b-9973-3360da2f703a" d="M54.638,45.013l.68,.68c-.47,.54-1.189,.87-1.959,.87-1.419,0-2.529-1.14-2.529-2.599,0-1.449,1.1-2.579,2.529-2.579,.779,0,1.499,.3,1.999,.839l-.699,.729c-.35-.39-.78-.589-1.259-.589-.81,0-1.439,.7-1.439,1.599,0,.909,.63,1.599,1.469,1.599,.479,0,.91-.19,1.209-.55Z"/>
    <path class="uuid-708fa214-2777-402b-9973-3360da2f703a" d="M58.459,46.562c-1.429,0-2.549-1.14-2.549-2.599,0-1.469,1.049-2.589,2.438-2.589,1.37,0,2.369,1.089,2.369,2.579v.28h-3.698c.11,.79,.729,1.37,1.499,1.37,.47,0,.91-.17,1.189-.47l.74,.689c-.61,.51-1.209,.74-1.989,.74Zm-1.419-3.019h2.608c-.13-.74-.64-1.249-1.309-1.249s-1.169,.49-1.299,1.249Z"/>
    <path class="uuid-708fa214-2777-402b-9973-3360da2f703a" d="M62,45.123c.649,.41,1.099,.57,1.609,.57,.6,0,1.009-.27,1.009-.67,0-.31-.209-.479-.689-.569l-.89-.15c-.969-.18-1.449-.63-1.449-1.379,0-.939,.77-1.549,1.939-1.549,.7,0,1.33,.19,1.969,.6l-.53,.739c-.52-.33-1-.479-1.509-.479-.52,0-.859,.22-.859,.589,0,.32,.18,.46,.709,.55l.879,.16c1,.19,1.479,.649,1.479,1.399,0,.919-.88,1.629-2.039,1.629-.87,0-1.629-.24-2.159-.68l.53-.76Z"/>
    <path class="uuid-708fa214-2777-402b-9973-3360da2f703a" d="M66.83,45.123c.649,.41,1.099,.57,1.609,.57,.6,0,1.009-.27,1.009-.67,0-.31-.209-.479-.689-.569l-.89-.15c-.969-.18-1.449-.63-1.449-1.379,0-.939,.77-1.549,1.939-1.549,.7,0,1.33,.19,1.969,.6l-.53,.739c-.52-.33-1-.479-1.509-.479-.52,0-.859,.22-.859,.589,0,.32,.18,.46,.709,.55l.879,.16c1,.19,1.479,.649,1.479,1.399,0,.919-.88,1.629-2.039,1.629-.87,0-1.629-.24-2.159-.68l.53-.76Z"/>
  </g>
  <rect class="uuid-4ab49e05-bcb3-4413-997a-645180e846eb" x="153.912" y="16.338" width="85.396" height="54.897"/>
  <g>
    <path class="uuid-8625b6a4-11ff-4dac-8e2a-230e889d1623" d="M162.596,41.455h1.109v.72c.35-.48,.91-.76,1.559-.76,1.27,0,2.269,1.129,2.269,2.549,0,1.429-1.029,2.548-2.349,2.548-.589,0-1.099-.229-1.459-.649v2.718h-1.129v-7.126Zm1.129,1.469v2.089c.29,.35,.72,.55,1.199,.55,.859,0,1.489-.68,1.489-1.599,0-.91-.64-1.599-1.489-1.599-.5,0-.899,.19-1.199,.56Z"/>
    <path class="uuid-8625b6a4-11ff-4dac-8e2a-230e889d1623" d="M168.505,45.023c0-.899,.729-1.469,1.909-1.469,.47,0,.899,.1,1.349,.31v-.55c0-.66-.38-1-1.149-1-.42,0-.879,.12-1.459,.39l-.4-.82c.75-.35,1.409-.51,2.079-.51,1.299,0,2.049,.66,2.049,1.819v3.268h-1.119v-.51c-.45,.41-.919,.59-1.489,.59-1.049,0-1.769-.62-1.769-1.52Zm2.079,.73c.45,0,.839-.13,1.179-.41v-.82c-.36-.17-.72-.24-1.159-.24-.64,0-1.04,.28-1.04,.72,0,.459,.4,.75,1.02,.75Z"/>
    <path class="uuid-8625b6a4-11ff-4dac-8e2a-230e889d1623" d="M174.255,41.455h1.129v1.089c.27-.77,.75-1.179,1.379-1.179,.19,.01,.32,.03,.49,.1v.989c-.18-.08-.41-.12-.62-.12-.54,0-1,.31-1.249,.83v3.298h-1.129v-5.007Z"/>
    <path class="uuid-8625b6a4-11ff-4dac-8e2a-230e889d1623" d="M180.264,46.562c-1.429,0-2.549-1.14-2.549-2.599,0-1.469,1.049-2.589,2.438-2.589,1.37,0,2.369,1.089,2.369,2.579v.28h-3.698c.11,.79,.729,1.37,1.499,1.37,.47,0,.91-.17,1.189-.47l.74,.689c-.61,.51-1.209,.74-1.989,.74Zm-1.419-3.019h2.608c-.13-.74-.64-1.249-1.309-1.249s-1.169,.49-1.299,1.249Z"/>
    <path class="uuid-8625b6a4-11ff-4dac-8e2a-230e889d1623" d="M183.675,41.455h1.129v.82c.38-.59,.919-.9,1.589-.9,1.02,0,1.729,.74,1.729,1.789v3.298h-1.129v-2.979c0-.729-.43-1.199-1.099-1.199-.45,0-.82,.21-1.089,.6v3.578h-1.129v-5.007Z"/>
    <path class="uuid-8625b6a4-11ff-4dac-8e2a-230e889d1623" d="M189.965,42.354h-1.009v-.899h1.009v-1.379l1.129-.24v1.619h1.399v.899h-1.399v2.539c0,.49,.19,.68,.7,.68,.229,0,.379-.03,.68-.12v.949c-.29,.09-.67,.14-.97,.14-1.009,0-1.539-.48-1.539-1.399v-2.789Z"/>
    <path class="uuid-8625b6a4-11ff-4dac-8e2a-230e889d1623" d="M195.735,41.455h1.109v.72c.35-.48,.909-.76,1.559-.76,1.269,0,2.269,1.129,2.269,2.549,0,1.429-1.029,2.548-2.349,2.548-.589,0-1.099-.229-1.459-.649v2.718h-1.129v-7.126Zm1.129,1.469v2.089c.29,.35,.72,.55,1.199,.55,.859,0,1.489-.68,1.489-1.599,0-.91-.64-1.599-1.489-1.599-.5,0-.899,.19-1.199,.56Z"/>
    <path class="uuid-8625b6a4-11ff-4dac-8e2a-230e889d1623" d="M201.845,41.455h1.129v1.089c.27-.77,.75-1.179,1.379-1.179,.19,.01,.32,.03,.49,.1v.989c-.18-.08-.41-.12-.62-.12-.54,0-.999,.31-1.249,.83v3.298h-1.129v-5.007Z"/>
    <path class="uuid-8625b6a4-11ff-4dac-8e2a-230e889d1623" d="M207.824,41.375c1.439,0,2.519,1.12,2.519,2.589,0,1.479-1.089,2.599-2.519,2.599s-2.519-1.129-2.519-2.599,1.089-2.589,2.519-2.589Zm1.399,2.599c0-.949-.59-1.629-1.399-1.629-.819,0-1.399,.68-1.399,1.629,0,.939,.58,1.609,1.399,1.609s1.399-.68,1.399-1.609Z"/>
    <path class="uuid-8625b6a4-11ff-4dac-8e2a-230e889d1623" d="M215.123,45.013l.679,.68c-.47,.54-1.189,.87-1.958,.87-1.419,0-2.529-1.14-2.529-2.599,0-1.449,1.1-2.579,2.529-2.579,.779,0,1.499,.3,1.999,.839l-.699,.729c-.35-.39-.78-.589-1.26-.589-.809,0-1.439,.7-1.439,1.599,0,.909,.63,1.599,1.469,1.599,.479,0,.91-.19,1.209-.55Z"/>
    <path class="uuid-8625b6a4-11ff-4dac-8e2a-230e889d1623" d="M218.944,46.562c-1.429,0-2.549-1.14-2.549-2.599,0-1.469,1.049-2.589,2.438-2.589,1.37,0,2.369,1.089,2.369,2.579v.28h-3.698c.11,.79,.729,1.37,1.499,1.37,.47,0,.91-.17,1.189-.47l.74,.689c-.61,.51-1.209,.74-1.989,.74Zm-1.419-3.019h2.608c-.13-.74-.64-1.249-1.309-1.249s-1.169,.49-1.299,1.249Z"/>
    <path class="uuid-8625b6a4-11ff-4dac-8e2a-230e889d1623" d="M222.485,45.123c.649,.41,1.099,.57,1.609,.57,.6,0,1.009-.27,1.009-.67,0-.31-.209-.479-.689-.569l-.89-.15c-.969-.18-1.449-.63-1.449-1.379,0-.939,.77-1.549,1.939-1.549,.7,0,1.33,.19,1.969,.6l-.53,.739c-.52-.33-1-.479-1.509-.479-.52,0-.859,.22-.859,.589,0,.32,.18,.46,.709,.55l.879,.16c1,.19,1.479,.649,1.479,1.399,0,.919-.88,1.629-2.039,1.629-.87,0-1.629-.24-2.159-.68l.53-.76Z"/>
    <path class="uuid-8625b6a4-11ff-4dac-8e2a-230e889d1623" d="M227.314,45.123c.649,.41,1.099,.57,1.609,.57,.6,0,1.009-.27,1.009-.67,0-.31-.209-.479-.689-.569l-.89-.15c-.969-.18-1.449-.63-1.449-1.379,0-.939,.77-1.549,1.939-1.549,.7,0,1.33,.19,1.969,.6l-.53,.739c-.52-.33-1-.479-1.509-.479-.52,0-.859,.22-.859,.589,0,.32,.18,.46,.709,.55l.879,.16c1,.19,1.479,.649,1.479,1.399,0,.919-.88,1.629-2.039,1.629-.87,0-1.629-.24-2.159-.68l.53-.76Z"/>
  </g>
  <rect class="uuid-4ab49e05-bcb3-4413-997a-645180e846eb" x="297.827" y="16.338" width="85.396" height="54.897"/>
  <g>
    <path class="uuid-8625b6a4-11ff-4dac-8e2a-230e889d1623" d="M306.51,41.455h1.109v.72c.351-.48,.91-.76,1.56-.76,1.27,0,2.269,1.129,2.269,2.549,0,1.429-1.029,2.548-2.349,2.548-.59,0-1.1-.229-1.459-.649v2.718h-1.13v-7.126Zm1.13,1.469v2.089c.29,.35,.72,.55,1.199,.55,.859,0,1.489-.68,1.489-1.599,0-.91-.64-1.599-1.489-1.599-.5,0-.899,.19-1.199,.56Z"/>
    <path class="uuid-8625b6a4-11ff-4dac-8e2a-230e889d1623" d="M312.421,45.023c0-.899,.729-1.469,1.908-1.469,.47,0,.899,.1,1.35,.31v-.55c0-.66-.38-1-1.149-1-.42,0-.88,.12-1.459,.39l-.4-.82c.75-.35,1.409-.51,2.079-.51,1.3,0,2.049,.66,2.049,1.819v3.268h-1.119v-.51c-.45,.41-.92,.59-1.489,.59-1.05,0-1.769-.62-1.769-1.52Zm2.078,.73c.45,0,.84-.13,1.18-.41v-.82c-.359-.17-.72-.24-1.159-.24-.64,0-1.04,.28-1.04,.72,0,.459,.4,.75,1.02,.75Z"/>
    <path class="uuid-8625b6a4-11ff-4dac-8e2a-230e889d1623" d="M318.17,41.455h1.13v1.089c.27-.77,.749-1.179,1.379-1.179,.19,.01,.32,.03,.49,.1v.989c-.181-.08-.41-.12-.62-.12-.539,0-.999,.31-1.249,.83v3.298h-1.13v-5.007Z"/>
    <path class="uuid-8625b6a4-11ff-4dac-8e2a-230e889d1623" d="M324.179,46.562c-1.43,0-2.549-1.14-2.549-2.599,0-1.469,1.05-2.589,2.438-2.589,1.369,0,2.369,1.089,2.369,2.579v.28h-3.698c.11,.79,.729,1.37,1.499,1.37,.47,0,.91-.17,1.189-.47l.739,.689c-.609,.51-1.209,.74-1.988,.74Zm-1.419-3.019h2.608c-.13-.74-.64-1.249-1.31-1.249s-1.169,.49-1.299,1.249Z"/>
    <path class="uuid-8625b6a4-11ff-4dac-8e2a-230e889d1623" d="M327.59,41.455h1.13v.82c.38-.59,.919-.9,1.589-.9,1.02,0,1.729,.74,1.729,1.789v3.298h-1.13v-2.979c0-.729-.43-1.199-1.1-1.199-.449,0-.819,.21-1.089,.6v3.578h-1.13v-5.007Z"/>
    <path class="uuid-8625b6a4-11ff-4dac-8e2a-230e889d1623" d="M333.88,42.354h-1.01v-.899h1.01v-1.379l1.129-.24v1.619h1.399v.899h-1.399v2.539c0,.49,.19,.68,.7,.68,.229,0,.38-.03,.68-.12v.949c-.29,.09-.67,.14-.97,.14-1.01,0-1.539-.48-1.539-1.399v-2.789Z"/>
    <path class="uuid-8625b6a4-11ff-4dac-8e2a-230e889d1623" d="M339.65,41.455h1.109v.72c.351-.48,.91-.76,1.56-.76,1.27,0,2.269,1.129,2.269,2.549,0,1.429-1.029,2.548-2.349,2.548-.59,0-1.1-.229-1.459-.649v2.718h-1.13v-7.126Zm1.13,1.469v2.089c.29,.35,.72,.55,1.199,.55,.859,0,1.489-.68,1.489-1.599,0-.91-.64-1.599-1.489-1.599-.5,0-.899,.19-1.199,.56Z"/>
    <path class="uuid-8625b6a4-11ff-4dac-8e2a-230e889d1623" d="M345.759,41.455h1.13v1.089c.27-.77,.749-1.179,1.379-1.179,.19,.01,.32,.03,.49,.1v.989c-.18-.08-.41-.12-.62-.12-.539,0-.999,.31-1.249,.83v3.298h-1.13v-5.007Z"/>
    <path class="uuid-8625b6a4-11ff-4dac-8e2a-230e889d1623" d="M351.739,41.375c1.439,0,2.519,1.12,2.519,2.589,0,1.479-1.089,2.599-2.519,2.599s-2.519-1.129-2.519-2.599,1.09-2.589,2.519-2.589Zm1.399,2.599c0-.949-.59-1.629-1.399-1.629-.819,0-1.399,.68-1.399,1.629,0,.939,.58,1.609,1.399,1.609s1.399-.68,1.399-1.609Z"/>
    <path class="uuid-8625b6a4-11ff-4dac-8e2a-230e889d1623" d="M359.038,45.013l.68,.68c-.47,.54-1.189,.87-1.959,.87-1.419,0-2.528-1.14-2.528-2.599,0-1.449,1.1-2.579,2.528-2.579,.78,0,1.499,.3,1.999,.839l-.699,.729c-.35-.39-.78-.589-1.26-.589-.81,0-1.438,.7-1.438,1.599,0,.909,.629,1.599,1.469,1.599,.479,0,.909-.19,1.209-.55Z"/>
    <path class="uuid-8625b6a4-11ff-4dac-8e2a-230e889d1623" d="M362.859,46.562c-1.43,0-2.549-1.14-2.549-2.599,0-1.469,1.05-2.589,2.438-2.589,1.369,0,2.369,1.089,2.369,2.579v.28h-3.698c.11,.79,.729,1.37,1.499,1.37,.47,0,.91-.17,1.189-.47l.739,.689c-.609,.51-1.209,.74-1.988,.74Zm-1.419-3.019h2.608c-.13-.74-.64-1.249-1.31-1.249s-1.169,.49-1.299,1.249Z"/>
    <path class="uuid-8625b6a4-11ff-4dac-8e2a-230e889d1623" d="M366.399,45.123c.65,.41,1.1,.57,1.609,.57,.6,0,1.01-.27,1.01-.67,0-.31-.21-.479-.689-.569l-.89-.15c-.97-.18-1.449-.63-1.449-1.379,0-.939,.77-1.549,1.938-1.549,.7,0,1.329,.19,1.969,.6l-.529,.739c-.52-.33-1-.479-1.51-.479-.52,0-.859,.22-.859,.589,0,.32,.181,.46,.71,.55l.88,.16c.999,.19,1.479,.649,1.479,1.399,0,.919-.879,1.629-2.039,1.629-.869,0-1.629-.24-2.158-.68l.529-.76Z"/>
    <path class="uuid-8625b6a4-11ff-4dac-8e2a-230e889d1623" d="M371.229,45.123c.65,.41,1.1,.57,1.609,.57,.6,0,1.01-.27,1.01-.67,0-.31-.21-.479-.689-.569l-.89-.15c-.97-.18-1.449-.63-1.449-1.379,0-.939,.77-1.549,1.938-1.549,.7,0,1.329,.19,1.969,.6l-.529,.739c-.52-.33-1-.479-1.51-.479-.52,0-.859,.22-.859,.589,0,.32,.181,.46,.71,.55l.88,.16c.999,.19,1.479,.649,1.479,1.399,0,.919-.879,1.629-2.039,1.629-.869,0-1.629-.24-2.158-.68l.529-.76Z"/>
  </g>
  <rect class="uuid-b1649a7d-bb6b-44e1-9760-7a698980c70e" x="441.743" y="16.338" width="85.396" height="54.897"/>
  <g>
    <path class="uuid-708fa214-2777-402b-9973-3360da2f703a" d="M466.996,41.455h1.109v.72c.351-.48,.91-.76,1.56-.76,1.27,0,2.269,1.129,2.269,2.549,0,1.429-1.029,2.548-2.349,2.548-.59,0-1.1-.229-1.459-.649v2.718h-1.13v-7.126Zm1.13,1.469v2.089c.29,.35,.72,.55,1.199,.55,.859,0,1.489-.68,1.489-1.599,0-.91-.64-1.599-1.489-1.599-.5,0-.899,.19-1.199,.56Z"/>
    <path class="uuid-708fa214-2777-402b-9973-3360da2f703a" d="M473.106,41.455h1.13v1.089c.27-.77,.749-1.179,1.379-1.179,.19,.01,.32,.03,.49,.1v.989c-.181-.08-.41-.12-.62-.12-.539,0-.999,.31-1.249,.83v3.298h-1.13v-5.007Z"/>
    <path class="uuid-708fa214-2777-402b-9973-3360da2f703a" d="M479.084,41.375c1.439,0,2.519,1.12,2.519,2.589,0,1.479-1.089,2.599-2.519,2.599s-2.519-1.129-2.519-2.599,1.09-2.589,2.519-2.589Zm1.399,2.599c0-.949-.59-1.629-1.399-1.629-.819,0-1.399,.68-1.399,1.629,0,.939,.58,1.609,1.399,1.609s1.399-.68,1.399-1.609Z"/>
    <path class="uuid-708fa214-2777-402b-9973-3360da2f703a" d="M486.383,45.013l.68,.68c-.47,.54-1.189,.87-1.959,.87-1.419,0-2.528-1.14-2.528-2.599,0-1.449,1.1-2.579,2.528-2.579,.78,0,1.499,.3,1.999,.839l-.699,.729c-.35-.39-.78-.589-1.26-.589-.81,0-1.438,.7-1.438,1.599,0,.909,.629,1.599,1.469,1.599,.479,0,.909-.19,1.209-.55Z"/>
    <path class="uuid-708fa214-2777-402b-9973-3360da2f703a" d="M490.205,46.562c-1.43,0-2.549-1.14-2.549-2.599,0-1.469,1.05-2.589,2.438-2.589,1.369,0,2.369,1.089,2.369,2.579v.28h-3.698c.11,.79,.729,1.37,1.499,1.37,.47,0,.91-.17,1.189-.47l.739,.689c-.609,.51-1.209,.74-1.988,.74Zm-1.419-3.019h2.608c-.13-.74-.64-1.249-1.31-1.249s-1.169,.49-1.299,1.249Z"/>
    <path class="uuid-708fa214-2777-402b-9973-3360da2f703a" d="M493.746,45.123c.65,.41,1.1,.57,1.609,.57,.6,0,1.01-.27,1.01-.67,0-.31-.21-.479-.689-.569l-.89-.15c-.97-.18-1.449-.63-1.449-1.379,0-.939,.77-1.549,1.938-1.549,.7,0,1.329,.19,1.969,.6l-.529,.739c-.52-.33-1-.479-1.509-.479-.521,0-.86,.22-.86,.589,0,.32,.181,.46,.71,.55l.88,.16c.999,.19,1.479,.649,1.479,1.399,0,.919-.879,1.629-2.039,1.629-.869,0-1.629-.24-2.158-.68l.529-.76Z"/>
    <path class="uuid-708fa214-2777-402b-9973-3360da2f703a" d="M498.575,45.123c.65,.41,1.1,.57,1.609,.57,.6,0,1.01-.27,1.01-.67,0-.31-.21-.479-.689-.569l-.89-.15c-.97-.18-1.449-.63-1.449-1.379,0-.939,.77-1.549,1.938-1.549,.7,0,1.329,.19,1.969,.6l-.529,.739c-.52-.33-1-.479-1.51-.479-.52,0-.859,.22-.859,.589,0,.32,.181,.46,.71,.55l.88,.16c.999,.19,1.479,.649,1.479,1.399,0,.919-.879,1.629-2.039,1.629-.869,0-1.629-.24-2.158-.68l.529-.76Z"/>
  </g>
  <rect class="uuid-b1649a7d-bb6b-44e1-9760-7a698980c70e" x="153.912" y="93.55" width="85.396" height="54.897"/>
  <g>
    <path class="uuid-708fa214-2777-402b-9973-3360da2f703a" d="M170.524,122.225l.68,.68c-.47,.54-1.189,.87-1.959,.87-1.419,0-2.529-1.14-2.529-2.599,0-1.449,1.1-2.579,2.529-2.579,.779,0,1.499,.3,1.999,.839l-.699,.729c-.35-.39-.78-.589-1.259-.589-.81,0-1.439,.7-1.439,1.599,0,.909,.63,1.599,1.469,1.599,.479,0,.91-.19,1.209-.55Z"/>
    <path class="uuid-708fa214-2777-402b-9973-3360da2f703a" d="M172.176,116.528l1.129-.19v3.148c.38-.59,.919-.9,1.589-.9,1.02,0,1.729,.74,1.729,1.789v3.298h-1.129v-2.979c0-.729-.43-1.199-1.099-1.199-.45,0-.82,.21-1.089,.6v3.578h-1.129v-7.146Z"/>
    <path class="uuid-708fa214-2777-402b-9973-3360da2f703a" d="M177.855,116.958c0-.38,.32-.7,.7-.7,.39,0,.709,.32,.709,.7,0,.39-.31,.689-.709,.689-.39,0-.7-.3-.7-.689Zm1.27,6.716h-1.129v-5.007h1.129v5.007Z"/>
    <path class="uuid-708fa214-2777-402b-9973-3360da2f703a" d="M181.645,123.674h-1.129v-7.146l1.129-.19v7.336Z"/>
    <path class="uuid-708fa214-2777-402b-9973-3360da2f703a" d="M186.614,123.005c-.35,.45-.91,.719-1.54,.719-1.269,0-2.269-1.129-2.269-2.548,0-1.429,1.029-2.549,2.339-2.549,.58,0,1.089,.24,1.459,.66v-2.758l1.129-.19v7.336h-1.119v-.669Zm-1.2-.23c.48,0,.89-.19,1.189-.55v-2.109c-.29-.34-.72-.54-1.189-.54-.859,0-1.489,.68-1.489,1.599,0,.909,.64,1.599,1.489,1.599Z"/>
    <path class="uuid-708fa214-2777-402b-9973-3360da2f703a" d="M191.385,118.667h1.109v.72c.35-.48,.909-.76,1.559-.76,1.269,0,2.269,1.129,2.269,2.549,0,1.429-1.029,2.548-2.349,2.548-.589,0-1.099-.229-1.459-.649v2.718h-1.129v-7.126Zm1.129,1.469v2.089c.29,.35,.72,.55,1.199,.55,.859,0,1.489-.68,1.489-1.599,0-.91-.64-1.599-1.489-1.599-.5,0-.899,.19-1.199,.56Z"/>
    <path class="uuid-708fa214-2777-402b-9973-3360da2f703a" d="M197.495,118.667h1.129v1.089c.27-.77,.75-1.179,1.379-1.179,.19,.01,.32,.03,.49,.1v.989c-.18-.08-.41-.12-.62-.12-.54,0-.999,.31-1.249,.83v3.298h-1.129v-5.007Z"/>
    <path class="uuid-708fa214-2777-402b-9973-3360da2f703a" d="M203.474,118.587c1.439,0,2.519,1.12,2.519,2.589,0,1.479-1.089,2.599-2.519,2.599s-2.519-1.129-2.519-2.599,1.089-2.589,2.519-2.589Zm1.399,2.599c0-.949-.59-1.629-1.399-1.629-.819,0-1.399,.68-1.399,1.629,0,.939,.58,1.609,1.399,1.609s1.399-.68,1.399-1.609Z"/>
    <path class="uuid-708fa214-2777-402b-9973-3360da2f703a" d="M210.773,122.225l.679,.68c-.47,.54-1.189,.87-1.958,.87-1.419,0-2.529-1.14-2.529-2.599,0-1.449,1.1-2.579,2.529-2.579,.779,0,1.499,.3,1.999,.839l-.699,.729c-.35-.39-.78-.589-1.26-.589-.809,0-1.439,.7-1.439,1.599,0,.909,.63,1.599,1.469,1.599,.479,0,.91-.19,1.209-.55Z"/>
    <path class="uuid-708fa214-2777-402b-9973-3360da2f703a" d="M214.594,123.774c-1.429,0-2.549-1.14-2.549-2.599,0-1.469,1.049-2.589,2.438-2.589,1.37,0,2.369,1.089,2.369,2.579v.28h-3.698c.11,.79,.729,1.37,1.499,1.37,.47,0,.91-.17,1.189-.47l.74,.689c-.61,.51-1.209,.74-1.989,.74Zm-1.419-3.019h2.608c-.13-.74-.64-1.249-1.309-1.249s-1.169,.49-1.299,1.249Z"/>
    <path class="uuid-708fa214-2777-402b-9973-3360da2f703a" d="M218.135,122.335c.649,.41,1.099,.57,1.609,.57,.6,0,1.009-.27,1.009-.67,0-.31-.209-.479-.689-.569l-.89-.15c-.969-.18-1.449-.63-1.449-1.379,0-.939,.77-1.549,1.939-1.549,.7,0,1.33,.19,1.969,.6l-.53,.739c-.52-.33-1-.479-1.509-.479-.52,0-.859,.22-.859,.589,0,.32,.18,.46,.709,.55l.879,.16c1,.19,1.479,.649,1.479,1.399,0,.919-.88,1.629-2.039,1.629-.87,0-1.629-.24-2.159-.68l.53-.76Z"/>
    <path class="uuid-708fa214-2777-402b-9973-3360da2f703a" d="M222.965,122.335c.649,.41,1.099,.57,1.609,.57,.6,0,1.009-.27,1.009-.67,0-.31-.209-.479-.689-.569l-.89-.15c-.969-.18-1.449-.63-1.449-1.379,0-.939,.77-1.549,1.939-1.549,.7,0,1.33,.19,1.969,.6l-.53,.739c-.52-.33-1-.479-1.509-.479-.52,0-.859,.22-.859,.589,0,.32,.18,.46,.709,.55l.879,.16c1,.19,1.479,.649,1.479,1.399,0,.919-.88,1.629-2.039,1.629-.87,0-1.629-.24-2.159-.68l.53-.76Z"/>
  </g>
  <g>
    <path d="M101.853,35.052l.21-1.009c.22-1.01,.869-1.559,1.839-1.559,.33,0,.689,.06,.899,.15l-.2,.959c-.23-.08-.43-.12-.66-.12-.45,0-.68,.2-.78,.669l-.19,.91h1.359l-.21,.899h-1.339l-.869,4.108h-1.11l.86-4.108h-1.029l.209-.899h1.01Z"/>
    <path d="M107.122,34.972c1.309,0,2.239,.97,2.239,2.329,0,1.569-1.22,2.858-2.699,2.858-1.299,0-2.249-.979-2.249-2.339,0-1.569,1.209-2.849,2.708-2.849Zm1.149,2.349c0-.83-.48-1.39-1.22-1.39-.859,0-1.539,.82-1.539,1.849,0,.839,.48,1.399,1.209,1.399,.87,0,1.549-.81,1.549-1.859Z"/>
    <path d="M111.053,35.052h1.12l-.22,1c.41-.709,.91-1.08,1.489-1.08,.2,0,.41,.04,.56,.12l-.22,.989c-.12-.09-.42-.15-.66-.15-.49,0-.969,.28-1.309,.76l-.729,3.368h-1.12l1.089-5.007Z"/>
    <path d="M115.322,32.913l1.14-.19-.939,4.507,2.429-2.179h1.399l-2.878,2.489,1.879,2.519h-1.319l-1.619-2.279-.48,2.279h-1.119l1.509-7.146Z"/>
  </g>
  <g>
    <path d="M260.762,116.608c-1.379,0-2.359-.959-2.359-2.329,0-1.559,1.189-2.848,2.639-2.848,1.239,0,2.089,.91,2.089,2.208,0,.25-.01,.44-.04,.64h-3.608c.02,.81,.589,1.39,1.369,1.39,.43,0,.85-.14,1.139-.41l.61,.74c-.61,.43-1.169,.61-1.839,.61Zm-1.189-3.019h2.559c-.05-.729-.51-1.229-1.149-1.229-.669,0-1.209,.5-1.409,1.229Z"/>
    <path d="M265.263,113.9l-1.25-2.399h1.239l.8,1.629,1.479-1.629h1.299l-2.349,2.469,1.319,2.539h-1.229l-.87-1.749-1.599,1.749h-1.299l2.459-2.608Z"/>
    <path d="M270.882,116.608c-1.379,0-2.359-.959-2.359-2.329,0-1.559,1.189-2.848,2.639-2.848,1.239,0,2.089,.91,2.089,2.208,0,.25-.01,.44-.04,.64h-3.608c.02,.81,.589,1.39,1.369,1.39,.43,0,.85-.14,1.139-.41l.61,.74c-.61,.43-1.169,.61-1.839,.61Zm-1.189-3.019h2.559c-.05-.729-.51-1.229-1.149-1.229-.669,0-1.209,.5-1.409,1.229Z"/>
    <path d="M277.702,115.169l.54,.709c-.52,.48-1.189,.73-1.879,.73-1.279,0-2.219-.959-2.219-2.269,0-1.599,1.229-2.908,2.729-2.908,.819,0,1.569,.38,1.979,1.009l-.8,.66c-.28-.45-.689-.669-1.209-.669-.87,0-1.589,.83-1.589,1.819,0,.81,.54,1.369,1.29,1.369,.43,0,.83-.15,1.159-.45Z"/>
  </g>
  <g>
    <path d="M391.906,116.608c-1.38,0-2.359-.959-2.359-2.329,0-1.559,1.189-2.848,2.639-2.848,1.239,0,2.089,.91,2.089,2.208,0,.25-.01,.44-.04,.64h-3.607c.02,.81,.589,1.39,1.369,1.39,.43,0,.85-.14,1.139-.41l.61,.74c-.61,.43-1.17,.61-1.839,.61Zm-1.189-3.019h2.559c-.05-.729-.51-1.229-1.149-1.229-.67,0-1.21,.5-1.409,1.229Z"/>
    <path d="M396.406,113.9l-1.249-2.399h1.239l.8,1.629,1.479-1.629h1.3l-2.349,2.469,1.319,2.539h-1.229l-.87-1.749-1.599,1.749h-1.3l2.459-2.608Z"/>
    <path d="M400.876,116.508h-1.119l1.089-5.007h1.119l-1.089,5.007Zm.14-6.636c0-.41,.359-.78,.77-.78,.34,0,.62,.27,.62,.62,0,.42-.36,.77-.78,.77-.35,0-.609-.26-.609-.609Z"/>
    <path d="M403.746,112.4h-.979l.2-.899h.97l.289-1.379,1.17-.24-.35,1.619h1.369l-.2,.899h-1.359l-.539,2.509c-.12,.52,.06,.72,.629,.72,.16,0,.271-.01,.57-.08l-.2,.939c-.24,.06-.55,.1-.85,.1-1.039,0-1.509-.53-1.299-1.479l.579-2.708Z"/>
  </g>
  <rect class="uuid-b1649a7d-bb6b-44e1-9760-7a698980c70e" x="297.827" y="93.55" width="85.396" height="54.897"/>
  <g>
    <path class="uuid-708fa214-2777-402b-9973-3360da2f703a" d="M314.439,122.225l.68,.68c-.47,.54-1.189,.87-1.959,.87-1.419,0-2.528-1.14-2.528-2.599,0-1.449,1.1-2.579,2.528-2.579,.78,0,1.499,.3,1.999,.839l-.699,.729c-.35-.39-.779-.589-1.26-.589-.81,0-1.439,.7-1.439,1.599,0,.909,.63,1.599,1.47,1.599,.479,0,.909-.19,1.209-.55Z"/>
    <path class="uuid-708fa214-2777-402b-9973-3360da2f703a" d="M316.09,116.528l1.13-.19v3.148c.38-.59,.919-.9,1.589-.9,1.02,0,1.729,.74,1.729,1.789v3.298h-1.13v-2.979c0-.729-.43-1.199-1.1-1.199-.449,0-.819,.21-1.089,.6v3.578h-1.13v-7.146Z"/>
    <path class="uuid-708fa214-2777-402b-9973-3360da2f703a" d="M321.771,116.958c0-.38,.32-.7,.7-.7,.39,0,.709,.32,.709,.7,0,.39-.31,.689-.709,.689-.391,0-.7-.3-.7-.689Zm1.27,6.716h-1.13v-5.007h1.13v5.007Z"/>
    <path class="uuid-708fa214-2777-402b-9973-3360da2f703a" d="M325.56,123.674h-1.13v-7.146l1.13-.19v7.336Z"/>
    <path class="uuid-708fa214-2777-402b-9973-3360da2f703a" d="M330.529,123.005c-.35,.45-.909,.719-1.539,.719-1.27,0-2.269-1.129-2.269-2.548,0-1.429,1.029-2.549,2.339-2.549,.579,0,1.089,.24,1.459,.66v-2.758l1.13-.19v7.336h-1.12v-.669Zm-1.199-.23c.479,0,.89-.19,1.189-.55v-2.109c-.29-.34-.72-.54-1.189-.54-.859,0-1.489,.68-1.489,1.599,0,.909,.64,1.599,1.489,1.599Z"/>
    <path class="uuid-708fa214-2777-402b-9973-3360da2f703a" d="M335.3,118.667h1.109v.72c.351-.48,.91-.76,1.56-.76,1.27,0,2.269,1.129,2.269,2.549,0,1.429-1.029,2.548-2.349,2.548-.59,0-1.1-.229-1.459-.649v2.718h-1.13v-7.126Zm1.13,1.469v2.089c.29,.35,.72,.55,1.199,.55,.859,0,1.489-.68,1.489-1.599,0-.91-.64-1.599-1.489-1.599-.5,0-.899,.19-1.199,.56Z"/>
    <path class="uuid-708fa214-2777-402b-9973-3360da2f703a" d="M341.411,118.667h1.13v1.089c.27-.77,.749-1.179,1.379-1.179,.19,.01,.32,.03,.49,.1v.989c-.181-.08-.41-.12-.62-.12-.539,0-.999,.31-1.249,.83v3.298h-1.13v-5.007Z"/>
    <path class="uuid-708fa214-2777-402b-9973-3360da2f703a" d="M347.389,118.587c1.439,0,2.519,1.12,2.519,2.589,0,1.479-1.089,2.599-2.519,2.599s-2.519-1.129-2.519-2.599,1.09-2.589,2.519-2.589Zm1.399,2.599c0-.949-.59-1.629-1.399-1.629-.819,0-1.399,.68-1.399,1.629,0,.939,.58,1.609,1.399,1.609s1.399-.68,1.399-1.609Z"/>
    <path class="uuid-708fa214-2777-402b-9973-3360da2f703a" d="M354.688,122.225l.68,.68c-.47,.54-1.189,.87-1.959,.87-1.419,0-2.528-1.14-2.528-2.599,0-1.449,1.1-2.579,2.528-2.579,.78,0,1.499,.3,1.999,.839l-.699,.729c-.35-.39-.78-.589-1.26-.589-.81,0-1.438,.7-1.438,1.599,0,.909,.629,1.599,1.469,1.599,.479,0,.909-.19,1.209-.55Z"/>
    <path class="uuid-708fa214-2777-402b-9973-3360da2f703a" d="M358.509,123.774c-1.43,0-2.549-1.14-2.549-2.599,0-1.469,1.05-2.589,2.438-2.589,1.369,0,2.369,1.089,2.369,2.579v.28h-3.698c.11,.79,.729,1.37,1.499,1.37,.47,0,.91-.17,1.189-.47l.739,.689c-.609,.51-1.209,.74-1.988,.74Zm-1.419-3.019h2.608c-.13-.74-.64-1.249-1.31-1.249s-1.169,.49-1.299,1.249Z"/>
    <path class="uuid-708fa214-2777-402b-9973-3360da2f703a" d="M362.05,122.335c.65,.41,1.1,.57,1.609,.57,.6,0,1.01-.27,1.01-.67,0-.31-.21-.479-.689-.569l-.89-.15c-.97-.18-1.449-.63-1.449-1.379,0-.939,.77-1.549,1.938-1.549,.7,0,1.329,.19,1.969,.6l-.529,.739c-.52-.33-1-.479-1.509-.479-.521,0-.86,.22-.86,.589,0,.32,.181,.46,.71,.55l.88,.16c.999,.19,1.479,.649,1.479,1.399,0,.919-.879,1.629-2.039,1.629-.869,0-1.629-.24-2.158-.68l.529-.76Z"/>
    <path class="uuid-708fa214-2777-402b-9973-3360da2f703a" d="M366.88,122.335c.65,.41,1.1,.57,1.609,.57,.6,0,1.01-.27,1.01-.67,0-.31-.21-.479-.689-.569l-.89-.15c-.97-.18-1.449-.63-1.449-1.379,0-.939,.77-1.549,1.938-1.549,.7,0,1.329,.19,1.969,.6l-.529,.739c-.52-.33-1-.479-1.509-.479-.521,0-.86,.22-.86,.589,0,.32,.181,.46,.71,.55l.88,.16c.999,.19,1.479,.649,1.479,1.399,0,.919-.879,1.629-2.039,1.629-.869,0-1.629-.24-2.158-.68l.529-.76Z"/>
  </g>
  <rect class="uuid-4ab49e05-bcb3-4413-997a-645180e846eb" x="441.743" y="93.55" width="85.396" height="54.897"/>
  <g>
    <path class="uuid-8625b6a4-11ff-4dac-8e2a-230e889d1623" d="M467.946,122.845l2.579-3.208-2.559,.01v-.979h3.947v.83l-2.599,3.218,2.659-.01v.969h-4.028v-.83Z"/>
    <path class="uuid-8625b6a4-11ff-4dac-8e2a-230e889d1623" d="M475.214,118.587c1.439,0,2.519,1.12,2.519,2.589,0,1.479-1.089,2.599-2.519,2.599s-2.519-1.129-2.519-2.599,1.09-2.589,2.519-2.589Zm1.399,2.599c0-.949-.59-1.629-1.399-1.629-.819,0-1.399,.68-1.399,1.629,0,.939,.58,1.609,1.399,1.609s1.399-.68,1.399-1.609Z"/>
    <path class="uuid-8625b6a4-11ff-4dac-8e2a-230e889d1623" d="M478.905,118.667h1.13v.8c.37-.58,.869-.88,1.489-.88,.67,0,1.209,.38,1.469,.97,.38-.64,.95-.97,1.659-.97,.97,0,1.64,.75,1.64,1.819v3.268h-1.13v-3.028c0-.7-.39-1.149-1.01-1.149-.409,0-.739,.2-1.009,.59,.01,.11,.02,.21,.02,.32v3.268h-1.129v-3.028c0-.7-.39-1.149-1.01-1.149-.399,0-.729,.19-.989,.57v3.608h-1.13v-5.007Z"/>
    <path class="uuid-8625b6a4-11ff-4dac-8e2a-230e889d1623" d="M490.254,123.724c-.59,0-1.119-.25-1.479-.699v.649h-1.109v-7.146l1.13-.19v2.999c.35-.44,.909-.71,1.539-.71,1.27,0,2.269,1.129,2.269,2.549,0,1.429-1.029,2.548-2.349,2.548Zm-1.459-3.588v2.089c.29,.35,.72,.55,1.199,.55,.859,0,1.489-.68,1.489-1.599,0-.91-.64-1.599-1.489-1.599-.5,0-.899,.19-1.199,.56Z"/>
    <path class="uuid-8625b6a4-11ff-4dac-8e2a-230e889d1623" d="M493.635,116.958c0-.38,.32-.7,.7-.7,.39,0,.709,.32,.709,.7,0,.39-.31,.689-.709,.689-.391,0-.7-.3-.7-.689Zm1.27,6.716h-1.13v-5.007h1.13v5.007Z"/>
    <path class="uuid-8625b6a4-11ff-4dac-8e2a-230e889d1623" d="M498.615,123.774c-1.43,0-2.549-1.14-2.549-2.599,0-1.469,1.05-2.589,2.438-2.589,1.369,0,2.369,1.089,2.369,2.579v.28h-3.698c.11,.79,.729,1.37,1.499,1.37,.47,0,.91-.17,1.189-.47l.739,.689c-.609,.51-1.209,.74-1.988,.74Zm-1.419-3.019h2.608c-.13-.74-.64-1.249-1.31-1.249s-1.169,.49-1.299,1.249Z"/>
  </g>
  <g>
    <polyline class="uuid-8d4be44b-cba3-4825-ae32-c0b66847051a" points="95.393 43.787 124.694 43.787 124.694 120.999 148.53 120.999"/>
    <polygon points="147.436 124.738 153.912 120.999 147.436 117.259 147.436 124.738"/>
  </g>
  <g>
    <polyline class="uuid-8d4be44b-cba3-4825-ae32-c0b66847051a" points="383.223 120.999 413.131 120.999 413.131 43.787 436.36 43.787"/>
    <polygon points="435.266 47.527 441.742 43.787 435.266 40.047 435.266 47.527"/>
  </g>
  <g>
    <line class="uuid-8d4be44b-cba3-4825-ae32-c0b66847051a" x1="239.308" y1="120.999" x2="292.066" y2="120.999"/>
    <polygon points="290.972 124.738 297.448 120.999 290.972 117.259 290.972 124.738"/>
  </g>
  <g>
    <line class="uuid-8d4be44b-cba3-4825-ae32-c0b66847051a" x1="527.138" y1="41.537" x2="579.896" y2="41.537"/>
    <polygon points="578.802 45.277 585.278 41.537 578.802 37.797 578.802 45.277"/>
  </g>
  <g>
    <line class="uuid-559ff37a-de2c-46ed-838d-4cd8ab9c34f3" x1="239.308" y1="43.787" x2="292.066" y2="43.787"/>
    <polygon class="uuid-56631c47-09e4-4235-b411-b4c32267632f" points="290.972 47.527 297.448 43.787 290.972 40.047 290.972 47.527"/>
  </g>
  <line class="uuid-559ff37a-de2c-46ed-838d-4cd8ab9c34f3" x1="383.223" y1="43.787" x2="412.041" y2="43.787"/>
</svg>